<svg id="Layer_1" data-name="Layer 1" xmlns="http://www.w3.org/2000/svg" viewBox="0 0 1948.74 324.45"><defs><style>.cls-1{fill:red;}.cls-2{fill:#3895d3;}.cls-3{fill:#fff;}</style></defs><path class="cls-1" d="M1041.33,336.19a23.13,23.13,0,0,1,17.37-8.06,21,21,0,0,1,21.23,21.23c0,14.57-13.1,26.45-33,44.45l0,.05-5.6,5.09-5.59-5.05-.16-.14c-19.79-18-32.84-29.85-32.84-44.4A21,21,0,0,1,1024,328.13,23.09,23.09,0,0,1,1041.33,336.19Z" transform="translate(-25.63 -74.95)"/><path class="cls-2" d="M131,398.9V328.25h4.34l32.8,56.63h-2.32l32.7-56.63h4.24l.1,70.65h-5.05l-.1-62.87h1.41l-31,53.49h-2.52L134.5,336H136V398.9Z" transform="translate(-25.63 -74.95)"/><path class="cls-2" d="M232.6,394.26h43.6v4.64H227.46V328.25h47.23v4.65H232.6Zm-.6-33.51h38.25v4.55H232Z" transform="translate(-25.63 -74.95)"/><path class="cls-2" d="M295,398.9V328.25h4.34l50.36,64.3h-2.32v-64.3h5.14V398.9h-4.23L297.8,334.61h2.32V398.9Z" transform="translate(-25.63 -74.95)"/><path class="cls-2" d="M390.65,398.9v-66H365.22v-4.65h56v4.65H395.8v66Z" transform="translate(-25.63 -74.95)"/><path class="cls-2" d="M418.61,398.9l32.5-70.65h5.15l32.5,70.65h-5.55l-30.69-67.42h2.22L424.16,398.9ZM430.52,379l1.72-4.34h42.29l1.71,4.34Z" transform="translate(-25.63 -74.95)"/><path class="cls-2" d="M501.57,398.9V328.25h5.15v66H547.4v4.64Z" transform="translate(-25.63 -74.95)"/><path class="cls-2" d="M591.7,398.9h-5.15V328.25h5.15Zm47.84-33.6H591.1v-4.55h48.44Zm-.6-37.05h5.14V398.9h-5.14Z" transform="translate(-25.63 -74.95)"/><path class="cls-2" d="M673.86,394.26h43.6v4.64H668.71V328.25h47.23v4.65H673.86Zm-.61-33.51H711.5v4.55H673.25Z" transform="translate(-25.63 -74.95)"/><path class="cls-2" d="M724.42,398.9l32.5-70.65h5.15l32.5,70.65H789l-30.68-67.42h2.22L730,398.9ZM736.33,379l1.72-4.34h42.28l1.72,4.34Z" transform="translate(-25.63 -74.95)"/><path class="cls-2" d="M807.38,398.9V328.25h5.15v66H853.2v4.64Z" transform="translate(-25.63 -74.95)"/><path class="cls-2" d="M873.39,398.9v-66H848v-4.65h56v4.65H878.54v66Z" transform="translate(-25.63 -74.95)"/><path class="cls-2" d="M921.83,398.9h-5.14V328.25h5.14Zm47.84-33.6H921.23v-4.55h48.44Zm-.6-37.05h5.15V398.9h-5.15Z" transform="translate(-25.63 -74.95)"/><path class="cls-3" d="M1019.73,365.8v-4.34h42.9v4.34Zm19.18,18.67V342.69h4.54v41.78Z" transform="translate(-25.63 -74.95)"/><path class="cls-1" d="M1108.14,398.9V328.25h4.34l32.8,56.63H1143l32.7-56.63h4.24l.1,70.65h-5l-.1-62.87h1.41l-31,53.49h-2.52L1111.68,336h1.51V398.9Z" transform="translate(-25.63 -74.95)"/><path class="cls-1" d="M1209.78,394.26h43.6v4.64h-48.75V328.25h47.23v4.65h-42.08Zm-.61-33.51h38.25v4.55h-38.25Z" transform="translate(-25.63 -74.95)"/><path class="cls-1" d="M1272.15,398.9V328.25h28a41,41,0,0,1,19.68,4.55A33,33,0,0,1,1333,345.31a37.93,37.93,0,0,1,0,36.54,33.09,33.09,0,0,1-13.17,12.51,41,41,0,0,1-19.68,4.54Zm5.15-4.64h22.4a36.37,36.37,0,0,0,17.36-3.93,28.43,28.43,0,0,0,11.41-10.85,33.31,33.31,0,0,0,0-31.8,28.49,28.49,0,0,0-11.41-10.85,36.37,36.37,0,0,0-17.36-3.93h-22.4Z" transform="translate(-25.63 -74.95)"/><path class="cls-1" d="M1355.52,398.9V328.25h5.14V398.9Z" transform="translate(-25.63 -74.95)"/><path class="cls-1" d="M1415.16,399.41a38.9,38.9,0,0,1-14.58-2.68,34.85,34.85,0,0,1-11.66-7.51,34.39,34.39,0,0,1-7.67-11.36,38.85,38.85,0,0,1,0-28.56,33.93,33.93,0,0,1,7.72-11.36,35.76,35.76,0,0,1,11.66-7.52,38.72,38.72,0,0,1,14.53-2.67,39.88,39.88,0,0,1,14,2.42,29,29,0,0,1,11.16,7.37l-3.23,3.33a27.61,27.61,0,0,0-10-6.41,34.34,34.34,0,0,0-11.65-2,33.5,33.5,0,0,0-12.57,2.33,30,30,0,0,0-16.75,16.45,33,33,0,0,0,0,24.62,30,30,0,0,0,16.75,16.45,33.5,33.5,0,0,0,12.57,2.33,34.34,34.34,0,0,0,11.65-2,27,27,0,0,0,10-6.51l3.23,3.33a29.44,29.44,0,0,1-11.16,7.42A39,39,0,0,1,1415.16,399.41Z" transform="translate(-25.63 -74.95)"/><path class="cls-1" d="M1443.93,398.9l32.5-70.65h5.15l32.49,70.65h-5.55l-30.68-67.42h2.22l-30.58,67.42ZM1455.84,379l1.71-4.34h42.29l1.72,4.34Z" transform="translate(-25.63 -74.95)"/><path class="cls-1" d="M1526.89,398.9V328.25H1532v66h40.67v4.64Z" transform="translate(-25.63 -74.95)"/><path class="cls-1" d="M1641.74,399.41a38.9,38.9,0,0,1-14.58-2.68,35,35,0,0,1-11.66-7.51,34.39,34.39,0,0,1-7.67-11.36,38.85,38.85,0,0,1,0-28.56,33.93,33.93,0,0,1,7.72-11.36,35.76,35.76,0,0,1,11.66-7.52,38.72,38.72,0,0,1,14.53-2.67,39.88,39.88,0,0,1,14,2.42,29,29,0,0,1,11.16,7.37l-3.23,3.33a27.61,27.61,0,0,0-10.05-6.41,34.34,34.34,0,0,0-11.65-2,33.5,33.5,0,0,0-12.57,2.33,30,30,0,0,0-16.75,16.45,33.15,33.15,0,0,0,0,24.62,30,30,0,0,0,16.75,16.45,33.5,33.5,0,0,0,12.57,2.33,34.34,34.34,0,0,0,11.65-2,27,27,0,0,0,10.05-6.51l3.23,3.33a29.44,29.44,0,0,1-11.16,7.42A39,39,0,0,1,1641.74,399.41Z" transform="translate(-25.63 -74.95)"/><path class="cls-1" d="M1670.51,398.9l32.5-70.65h5.15l32.49,70.65h-5.55l-30.68-67.42h2.22l-30.58,67.42ZM1682.42,379l1.71-4.34h42.29l1.72,4.34Z" transform="translate(-25.63 -74.95)"/><path class="cls-1" d="M1753.47,398.9V328.25h25.33a37.39,37.39,0,0,1,15.24,2.83,21.87,21.87,0,0,1,9.79,8.13,23.13,23.13,0,0,1,3.44,12.86,22.76,22.76,0,0,1-3.44,12.67,22.22,22.22,0,0,1-9.79,8.18,36.88,36.88,0,0,1-15.24,2.87h-22.5l2.32-2.42V398.9Zm5.15-25.23-2.32-2.42h22.5q11.42,0,17.31-5.05t5.91-14.13q0-9.18-5.91-14.18t-17.31-5h-22.5l2.32-2.53Zm43.9,25.23-18.37-25.63H1790l18.37,25.63Z" transform="translate(-25.63 -74.95)"/><path class="cls-1" d="M1831.29,394.26h43.6v4.64h-48.75V328.25h47.23v4.65h-42.08Zm-.61-33.51h38.25v4.55h-38.25Z" transform="translate(-25.63 -74.95)"/><path d="M25.63,78.3h46l40.43,132.17L155.84,77.74h36.81l43.77,132.73L276.86,78.3h44.89L255.11,274.88H217.74L173.69,147.17,129.63,274.88H92.27Z" transform="translate(-25.63 -74.95)"/><path d="M355.48,78.3h42.95V273.49H355.48Z" transform="translate(-25.63 -74.95)"/><path d="M447.22,78.3h42.94V234.45h97.31v39H447.22Z" transform="translate(-25.63 -74.95)"/><path d="M619.81,78.3H666.1l51.31,82.54,51.3-82.54H815V273.49H772.34V146.06l-54.93,83.37H716.3l-54.38-82.54v126.6h-42.1V78.3Z" transform="translate(-25.63 -74.95)"/><path d="M863.79,78.3h42.94V273.49H863.79Z" transform="translate(-25.63 -74.95)"/><path d="M955.53,78.3h39.59l91.46,120.18V78.3H1129V273.49h-36.53L997.9,149.41V273.49H955.52V78.3Z" transform="translate(-25.63 -74.95)"/><path d="M1167.16,176.46v-.57c0-55.48,43.22-100.94,102.33-100.94,35.13,0,56.33,9.48,76.68,26.77l-27,32.63c-15.06-12.55-28.44-19.8-51-19.8-31.23,0-56,27.6-56,60.79v.55c0,35.69,24.53,61.9,59.11,61.9,15.61,0,29.56-3.9,40.43-11.7V198.2h-43.22V161.12h84.77v84.76c-20.08,17-47.68,30.95-83.37,30.95C1209,276.83,1167.16,234.17,1167.16,176.46Z" transform="translate(-25.63 -74.95)"/><path d="M1437.07,117.89h-59.39V78.3H1539.4v39.59H1480v155.6h-42.94V117.89Z" transform="translate(-25.63 -74.95)"/><path d="M1800.94,78.3h39.59L1932,198.48V78.3h42.38V273.49h-36.52l-94.53-124.08V273.49h-42.39V78.3Z" transform="translate(-25.63 -74.95)"/><path d="M1659.29,75c-60.23,0-104,45.45-104,100.94v.57c0,54.54,41.81,98.75,100.45,100.23,0-4.21,0-7.17,0-7.3a50.09,50.09,0,0,0-1.66-18.84c-1.5-5-5-8.21-10.29-8.3a139.31,139.31,0,0,0-16.81,1.13c-3.3.35-6.52,1.32-9.79,1.87-2.8.48-4.12-.8-3.93-3.61,0-.62.18-1.22.26-1.84.94-7.07-3.29-13.46-10-15-2-.45-2.56-1.54-1.93-3.39a7.77,7.77,0,0,1,.75-1.69c4.21-6.6-1.17-14.56-6.07-16.72a21.57,21.57,0,0,1-3.7-1.91c-2-1.4-2-2.5-.32-4.25,3.11-3.13,6.36-6.13,9.26-9.44a12.39,12.39,0,0,0,2.79-5.45,47.28,47.28,0,0,0,0-19.14,48.39,48.39,0,0,1,8.85-40.18c9.32-12.59,22.1-20,37.31-22.87,23.14-4.4,44.2.13,61.33,17,12.16,12,17.32,26.85,14.38,44.06-1.57,9.16-5.29,17.6-8.71,26.13-4.5,11.21-7.75,22.61-7.75,34.87a294.38,294.38,0,0,0,3.28,40.69,99.33,99.33,0,0,0,49.74-86.65v-.56C1762.74,119.85,1719.52,75,1659.29,75Z" transform="translate(-25.63 -74.95)"/><path class="cls-2" d="M1631.67,145.41c11.09,16.51,20.58,17.55,37,19.42s18.91,22.3,18.91,22.3c7.29-14,14.24-20.64,24.29-24,4.38-1.47,7.62-7.2,8.12-14.44-.79-9.79-5-18.46-12.91-26.24-11.53-11.38-25-16.91-41.19-16.91a81.33,81.33,0,0,0-15.22,1.52c-1.67.31-3.28.69-4.86,1.13C1627.06,114.34,1622.13,131.21,1631.67,145.41Z" transform="translate(-25.63 -74.95)"/><rect x="0.69" y="286.72" width="79.3" height="7.61"/><rect x="1869.45" y="286.72" width="79.3" height="7.61"/></svg>